<svg id="Слой_1" data-name="Слой 1" xmlns="http://www.w3.org/2000/svg" viewBox="0 0 99.45 64.86"><defs><style>.cls-1{fill:#2a1b0e;fill-rule:evenodd;}</style></defs><title>firuletes</title><path class="cls-1" d="M88.79,28.08a8.5,8.5,0,0,0-4.55-3,4.54,4.54,0,0,0-3.71-4.2,8.77,8.77,0,0,0-2.81-.15c-2.1-5-8.56-5.16-13.17-4.79a56.2,56.2,0,0,0-18.46,5,69.52,69.52,0,0,1-7.75,3c-.43-.26-.85-.52-1.28-.76a27.54,27.54,0,0,0-9.85-3.51c.37-3.26,3.5-5.47,6.3-6.76a20.36,20.36,0,0,1,11.75-1.52c.22,0,.32-.3.1-.34-5.83-1-13.73.15-17.58,5.19a7.43,7.43,0,0,0-1.44,3.36,10.49,10.49,0,0,0-8.82,3.12,5.26,5.26,0,0,0-.52,7c2.05,2.63,5.84,3.65,9,4.27,7.75,1.52,15.58.11,23.05-2.19,1.13.69,2.29,1.38,3.44,2a98.15,98.15,0,0,1-10.68,3.66,48.77,48.77,0,0,1-14.31,1.87,31.73,31.73,0,0,1-7.32-1.08,15.89,15.89,0,0,1-3.74-1.4,4.5,4.5,0,0,1-1.31-1c-.87-1.1-1-3.59,1.18-3.48.54,0,.51-.77,0-.83-2.05-.23-3.31,2-2.73,3.85.92,2.93,5.2,3.85,7.74,4.43a34.34,34.34,0,0,0,6.67.81c2.58,4.2,8.68,4.51,13,3.89,6.26-.88,12-3.75,17.91-5.89l1.9-.68a38.25,38.25,0,0,0,10.77,2.82,18.31,18.31,0,0,1-4.21,1.6c-6,1.84-12.44,2.16-18.28,4.73-2.36,1-5.37,2.35-6.54,4.85a3.67,3.67,0,0,0,1.28,4.87c.31.17.68-.26.39-.52-3.59-3.12,1.37-6.49,4-7.79a39.12,39.12,0,0,1,9.72-3.12,92.86,92.86,0,0,0,9.67-2.07c1.58-.49,4-1.16,5.39-2.45a28.29,28.29,0,0,0,8.45-.83c2.9-.75,6.58-2,8.21-4.75a6.42,6.42,0,0,0-.87-7.29ZM53.07,19h0a44.55,44.55,0,0,1,12.27-2.11c3.65-.11,9.2.23,11,4.1a59.32,59.32,0,0,0-7,2.24c-6.87,2.26-13.55,5.15-20.46,7.29-3.09-1.92-6.13-3.92-9.24-5.81,4.6-1.6,9-4.29,13.48-5.71ZM37,24.35h0c-4.8,1.26-9.56,1.27-9.81-3.65A24.56,24.56,0,0,1,37,24.35Zm7.12,7.5h0a46.37,46.37,0,0,1-13,1.48C27,33.15,21.36,32.5,18.3,29.4c-1.89-1.92-1.44-4.57.43-6.33a10.24,10.24,0,0,1,6.94-2.44l.61,0a5.53,5.53,0,0,0,.5,2.24c1.06,2.27,3.51,3.08,5.87,3.1a19.1,19.1,0,0,0,5.66-.87c3,1.83,6.06,3.84,9.2,5.8-1.12.33-2.25.64-3.39.92Zm6.18-.42h0q1.92-.62,3.78-1.29c4.82-1.73,9.56-3.63,14.4-5.29,2.4-.82,4.8-1.65,7.24-2.35,2.69-.77,7.66-1.14,8,2.5C79,24,73.15,26,69,27.38c-5.19,1.75-10.23,4-15.32,6-1.13-.63-2.25-1.29-3.37-2ZM49.05,41.56h0c-6.29,2.15-14.58,3.87-20.1-.83a55.12,55.12,0,0,0,16.87-3c2.74-.89,5.42-1.93,8.09-3,1.88,1,3.78,2,5.71,2.83-3.57,1.24-7,2.81-10.57,4Zm23.79-1.93h0a39.21,39.21,0,0,1-10.31-2.16,20.31,20.31,0,0,1,6.57-1.06c1.12,0,3.07.08,3.77,1.24a2,2,0,0,1,0,2Zm12.78-2.49h0a23.4,23.4,0,0,1-11.73,2.54,3.16,3.16,0,0,0-.53-2.88c-1.38-1.67-4.76-1.31-6.63-1.06A32.24,32.24,0,0,0,61.27,37c-.67-.26-1.34-.52-2-.81-1.39-.6-2.75-1.28-4.09-2,5.18-2.11,10.31-4.34,15.65-6,4.22-1.35,9.37-3.1,13.75-1.53a6.94,6.94,0,0,1,4.34,4.51C89.69,33.92,87.94,35.9,85.62,37.14Z"/></svg>